<?xml version="1.0" encoding="UTF-8"?>
<svg width="500px" height="500px" viewBox="0 0 500 500" version="1.1" xmlns="http://www.w3.org/2000/svg" xmlns:xlink="http://www.w3.org/1999/xlink">
  <polygon id="Combined-Shape" fill="#5451C5" fill-rule="nonzero" points="456.291971 3.44923658e-14 500 114.07767 456.291971 228.15534 500 341.626214 456.587467 456.570348 342.63176 500 228.676335 456.570348 114.720607 500 1.08620195 455.737864 1 455.841232 1.04492214 455.722087 1 455.703883 1.09591484 455.587379 44.386183 341.881312 1 227.921519 44.386183 113.961195 1 0 114.886853 43.4146598 228.773377 0 342.772506 43.6893204"></polygon>
  <path d="M145.284365,144.454667 C173.758856,115.421767 208.711618,101 250.20245,101 C292.022178,101 327.712466,115.571267 357.093915,144.753667 C370.948968,158.492308 381.849594,174.918021 389.126472,193.022233 C396.402068,211.0021 400,230.207867 400,250.5 C400,270.9815 396.412035,290.2072 389.106539,308.187067 C381.990408,325.977567 371.356077,341.695 357.28328,355.399167 C343.067993,369.566825 326.211977,380.808793 307.669694,388.4885 C289.460156,396.088151 269.924204,400 250.192483,400 C230.428774,400 211.492291,396.272467 193.3332,388.7875 C175.353507,381.143067 159.167797,370.1598 144.756137,355.917433 C130.523874,341.505633 119.680246,325.329733 112.205318,307.349867 C104.72409,289.334572 100.915487,270.006744 101.001422,250.5 C101.001422,230.746067 104.730391,211.8094 112.205318,193.650133 C119.891608,175.231769 131.135957,158.510719 145.294332,144.4447 L145.284365,144.454667 Z M337.509605,163.9096 C313.480204,139.8999 284.626983,127.91 250.800444,127.91 C216.625075,127.91 187.851586,139.87 164.539779,163.7003 C153.014117,175.305049 143.779907,188.97898 137.321075,204.0055 C131.085727,218.711878 127.885571,234.526361 127.912463,250.5 C127.912463,266.516433 131.101936,281.934867 137.331042,296.8749 C143.791326,311.744971 153.025543,325.24803 164.539779,336.661833 C175.975475,348.028003 189.485011,357.095348 204.336294,363.3725 C219.106751,369.422267 234.614734,372.472067 250.81041,372.472067 C266.836655,372.472067 282.244973,369.3824 297.194828,363.153233 C312.410174,356.848525 326.272462,347.679093 338.027866,336.143567 C361.329708,313.359767 373.09026,284.8551 373.09026,250.5 C373.09026,233.955333 370.04049,218.2678 363.980815,203.4972 C357.8868,188.670731 348.882327,175.21642 337.499638,163.929533 L337.509605,163.9096 Z M188.728645,250.5 C188.728645,211.022033 201.146991,164.4478 250.501447,164.4478 C299.855902,164.4478 312.264282,211.022033 312.264282,250.5 C312.264282,289.987933 299.855902,336.5522 250.501447,336.5522 C201.137024,336.5522 188.728645,289.987933 188.728645,250.5 Z M256.052826,197.626833 C254.239219,197.157498 252.374746,196.913139 250.501447,196.899267 C225.116592,196.899267 223.910637,233.108167 223.910637,250.490033 C223.910637,256.0913 224.050169,263.576267 225.06676,271.2207 L257.936508,210.8227 C261.345075,204.922433 259.610892,200.696567 256.04286,197.626833 L256.052826,197.626833 Z M277.092256,250.5 C277.092256,243.692767 276.843092,234.015133 275.098942,224.746133 L238.362164,288.193933 C233.239347,295.8882 236.797413,300.243633 242.448458,302.6456 C242.946787,302.844933 243.494948,303.014367 244.01321,303.163867 L244.960034,303.472833 C246.674284,303.9014 248.508133,304.1107 250.511413,304.1107 C275.886301,304.1107 277.092256,267.891833 277.092256,250.5 L277.092256,250.5 Z" id="Shape" fill="#FFFFFF"></path>
</svg>
